<svg width="564" height="472" viewBox="0 0 564 472" fill="none" xmlns="http://www.w3.org/2000/svg">
<g clip-path="url(#clip0_2009_2)">
<path d="M460.358 5.45674C499.863 15.7055 530.293 37.4686 550.614 72.7271C563.084 94.3642 565.913 117.951 563.802 142.271C561.658 166.959 558.841 191.588 556.246 216.236C554.406 233.721 550.92 250.777 542.495 266.466C533.181 283.81 519.718 296.291 500.468 301.709C496.839 302.73 496.332 304.176 497 307.729C501.784 333.181 501.341 358.597 492.764 383.123C479.736 420.38 458.228 450.716 419.591 465.29C400.346 472.55 380.364 473.634 360.048 470.834C333.644 467.195 309.064 458.277 285.743 445.646C282.862 444.086 280.578 444.408 277.839 445.895C257.362 457.008 235.775 465.249 212.841 469.481C180.817 475.39 150.087 472.543 122.172 454.103C104.054 442.135 91.275 425.418 81.1773 406.502C70.4948 386.49 64.6504 365.108 64.3083 342.416C64.1305 330.614 64.6069 318.768 67.1052 307.154C67.7025 304.378 67.497 302.873 64.4206 302.001C37.809 294.457 23.2521 275.257 14.6853 250.299C9.83191 236.159 8.36525 221.432 6.87622 206.692C4.75347 185.678 2.49765 164.678 0.354723 143.666C-3.41855 106.669 6.46573 74.2523 32.222 46.8647C57.4607 20.0274 88.7964 6.23222 124.876 1.58604C161.48 -3.12767 196.794 2.22361 231.633 13.3946C240.711 16.3055 249.657 20.718 259.671 19.6912C274.637 18.1565 289.581 18.3084 304.557 19.661C315.051 20.6088 324.399 15.8075 333.995 12.7978C360.719 4.41615 387.896 -0.641743 415.977 -0.172321C430.831 0.0759995 445.5 1.89836 460.358 5.45674ZM128.902 428.59C135.271 434.073 142.338 438.402 150.158 441.508C166.032 447.811 182.407 448.918 199.243 446.852C225.664 443.609 249.733 433.913 272.684 420.94C274.608 419.852 275.545 418.544 275.24 416.11C273.751 404.227 272.132 392.345 271.174 380.414C270.52 372.262 266.468 367.418 259.326 364.076C251.944 360.622 244.695 356.787 238.678 351.086C228.176 341.137 226.804 322.108 244.672 314.779C252.97 311.376 261.573 309.754 270.393 309.17C286.933 308.076 303.459 308.146 319.039 314.807C335.166 321.702 337.977 337.792 325.716 350.388C319.166 357.117 310.858 361.029 302.692 365.133C297.692 367.647 294.22 371.263 293.468 376.739C291.861 388.441 291.174 400.292 289.057 411.89C287.838 418.568 290.921 421.064 295.848 423.656C318.575 435.615 342.214 444.776 367.987 447.303C385.481 449.019 402.774 447.959 418.56 439.401C444.323 425.433 460.14 403.087 469.604 375.969C477.265 354.017 476.976 331.565 472.762 308.93C471.887 304.23 469.93 301.816 465.347 300.327C445.104 293.746 431.166 280.207 423.186 260.57C413.154 235.882 410.576 209.653 407.774 183.52C405.328 160.706 404.323 137.728 400.535 115.069C396.299 89.7328 384.289 70.0409 359.787 59.1505C341.478 51.0127 322.482 46.1862 302.624 43.9919C270.155 40.4041 238.969 45.0298 208.684 57.0824C184.601 66.6667 170.049 83.9614 164.703 109.254C159.695 132.944 159.026 157.127 156.437 181.087C154.059 203.096 151.67 225.063 145.807 246.493C138.474 273.293 123.6 293.222 95.8275 301.354C92.2979 302.387 91.9655 305.271 91.5125 307.968C88.9992 322.935 87.037 337.923 89.2644 353.156C93.5863 382.715 105.94 408.036 128.902 428.59ZM432.458 25.2642C409.002 22.7608 385.89 24.4871 362.678 30.1669C363.313 31.1813 363.416 31.5668 363.655 31.6915C365.13 32.4612 366.625 33.1946 368.133 33.8993C383.244 40.9632 395.566 51.4024 405.604 64.6642C420.393 84.2039 424.82 107.137 427.22 130.696C429.901 157 431.471 183.425 435.443 209.586C437.79 225.046 440.476 240.432 447.252 254.807C458.784 279.272 494.56 291.799 516.196 262.396C526 249.072 529.736 233.619 531.609 217.61C533.329 202.913 534.416 188.141 536.152 173.446C538.183 156.251 540.351 139.088 539.793 121.714C539.441 110.75 537.363 100.132 532.37 90.3741C511.71 49.9987 477.188 30.5235 432.458 25.2642ZM85.2998 278.798C103.038 275.277 113.877 264.165 119.819 247.571C127.983 224.771 130.044 200.844 132.532 177.056C134.885 154.568 135.934 131.922 139.831 109.624C145.388 77.8269 161.591 53.0997 189.944 36.9091C193.718 34.7538 197.706 32.9727 202.63 30.4982C190.955 27.5209 180.321 25.9287 169.525 24.999C142.077 22.6354 115.182 24.7825 89.6865 35.8198C60.2222 48.5751 38.679 69.443 27.9878 100.225C21.629 118.533 24.0591 137.456 25.8197 156.169C27.7041 176.199 30.1769 196.173 32.2772 216.184C33.857 231.235 37.2629 245.692 45.1898 258.809C54.1666 273.663 69.7826 281.674 85.2998 278.798Z" fill="#595C5F"/>
<path d="M373.782 237.071C384.338 245.727 386.967 257.068 381.312 268.469C376.532 278.106 365.075 283.404 354.394 280.918C339.808 277.522 331.837 263.221 336.588 248.972C341.06 235.561 356.167 229.006 369.553 234.707C370.92 235.289 372.175 236.133 373.782 237.071Z" fill="#595C5F"/>
<path d="M192.68 278.591C182.285 272.253 177.784 261.482 180.767 250.678C183.666 240.176 192.656 232.987 203.245 232.702C214.725 232.395 224.452 238.817 227.491 249.593C230.188 259.156 228.723 268.237 220.888 275.12C212.55 282.445 203.051 283.239 192.68 278.591Z" fill="#595C5F"/>
<path d="M352.65 388.919C346.942 391.218 343.326 389.989 342.513 385.67C341.952 382.691 342.639 380.028 345.656 378.567C348.338 377.269 350.904 377.648 352.946 379.773C355.704 382.642 355.425 385.69 352.65 388.919Z" fill="#595C5F"/>
<path d="M221.682 384.087C220.29 389.513 217.242 391.486 213.225 389.967C209.949 388.728 208.343 385.03 209.706 381.867C211.206 378.387 214.941 377.011 218.354 378.564C220.615 379.592 221.33 381.492 221.682 384.087Z" fill="#595C5F"/>
<path d="M238.196 400.875C237.301 405.241 234.67 406.704 230.868 406.281C227.811 405.942 226.156 403.987 225.852 401.038C225.479 397.404 227.127 394.924 230.726 394.09C234.603 393.192 237.209 395.493 238.196 400.875Z" fill="#595C5F"/>
<path d="M336.406 395.651C338.803 398.817 339.031 401.803 336.57 404.489C334.423 406.835 331.542 406.982 328.836 405.63C326.371 404.4 325.535 402.013 325.859 399.345C326.435 394.602 330.748 392.959 336.406 395.651Z" fill="#595C5F"/>
<path d="M321.767 379.922C322.181 374.926 324.795 373.062 329.234 373.684C332.625 374.159 334.121 376.54 334.114 379.651C334.107 383.35 331.904 385.605 328.254 385.879C324.469 386.162 322.456 383.911 321.767 379.922Z" fill="#595C5F"/>
<path d="M239.998 374.774C242.81 377.507 242.935 380.35 241.208 383.193C239.76 385.578 237.369 386.278 234.7 385.711C231.95 385.127 230.418 383.212 229.936 380.552C228.982 375.287 233.309 372.634 239.998 374.774Z" fill="#595C5F"/>
</g>
<defs>
<clipPath id="clip0_2009_2">
<rect width="564" height="472" fill="white"/>
</clipPath>
</defs>
</svg>
