<?xml version="1.0" standalone="no"?>
<!DOCTYPE svg PUBLIC "-//W3C//DTD SVG 20010904//EN"
 "http://www.w3.org/TR/2001/REC-SVG-20010904/DTD/svg10.dtd">
<svg version="1.0" xmlns="http://www.w3.org/2000/svg"
 width="512.000000pt" height="512.000000pt" viewBox="0 0 512.000000 512.000000"
 preserveAspectRatio="xMidYMid meet">

<g transform="translate(0.000000,512.000000) scale(0.100000,-0.100000)"
fill="#595C5F" stroke="none">
<path d="M1958 5096 c-99 -11 -121 -16 -151 -39 -35 -27 -67 -81 -67 -114 0
-17 -21 -23 -192 -51 -834 -139 -1370 -405 -1510 -751 -23 -55 -23 -64 -26
-520 -2 -312 1 -481 8 -517 19 -89 67 -171 154 -262 269 -281 827 -485 1585
-581 146 -19 165 -24 181 -44 11 -13 47 -39 82 -58 l63 -34 198 -3 197 -4 0
-63 0 -63 -56 -7 c-133 -16 -301 -82 -425 -165 -82 -56 -203 -177 -259 -259
-59 -88 -114 -210 -141 -311 -32 -126 -37 -315 -11 -441 131 -631 813 -977
1390 -704 289 137 489 392 554 704 28 135 21 327 -16 456 -84 284 -260 496
-523 629 -82 41 -210 80 -296 91 l-57 7 0 63 0 63 128 4 c137 5 172 16 252 78
28 22 50 29 105 34 39 4 87 9 107 12 35 5 38 3 51 -28 18 -43 68 -85 111 -94
19 -3 84 -4 144 -2 93 2 115 6 138 24 46 34 67 70 72 123 4 42 8 52 26 56 436
96 759 215 983 361 173 112 303 266 338 399 22 87 22 922 0 1010 -89 341 -587
619 -1385 774 -331 64 -622 91 -1068 98 l-342 6 -19 42 c-40 90 -100 105 -323
81z m182 -156 c0 -5 18 -215 40 -466 22 -251 39 -458 38 -459 -3 -3 -232 -23
-235 -21 -3 2 -83 929 -80 932 3 3 163 20 210 23 15 0 27 -3 27 -9z m805 -140
c1002 -62 1792 -335 1971 -681 23 -44 28 -67 29 -124 0 -89 -33 -161 -114
-247 l-56 -60 -70 43 c-38 24 -122 66 -185 95 -485 219 -1190 344 -1942 344
l-207 0 -5 33 c-3 17 -15 145 -26 282 -11 138 -23 267 -26 288 l-6 37 239 0
c131 0 310 -5 398 -10z m-1191 -62 c6 -26 55 -602 52 -605 -1 -1 -67 -11 -146
-23 -519 -76 -976 -215 -1245 -379 l-70 -43 -56 60 c-81 86 -114 158 -114 247
0 60 5 79 34 133 39 71 133 165 231 231 141 93 382 195 625 265 166 47 456
108 620 129 61 8 65 7 69 -15z m1191 -738 c656 -41 1227 -170 1598 -362 42
-22 77 -43 77 -47 0 -11 -241 -124 -351 -164 -112 -42 -350 -108 -473 -133
-83 -16 -85 -16 -128 5 -37 18 -63 21 -157 21 -130 0 -167 -12 -209 -69 -14
-20 -27 -37 -27 -38 -1 -2 -47 -8 -103 -13 l-101 -11 -39 39 c-21 21 -60 49
-87 62 l-50 25 -405 0 -405 0 -52 -27 c-29 -16 -67 -41 -86 -57 l-33 -30 -149
19 c-360 47 -652 114 -925 211 -103 37 -340 149 -340 161 0 15 245 126 391
176 243 84 561 155 880 197 l47 6 22 -45 c22 -46 62 -78 111 -90 42 -9 312 20
348 39 35 17 68 64 78 108 l6 27 201 0 c110 0 273 -5 361 -10z m-2724 -406
c54 -56 214 -158 350 -223 287 -137 712 -250 1142 -306 65 -8 122 -15 128 -15
5 0 9 -125 9 -320 0 -249 -3 -320 -12 -320 -38 0 -316 45 -466 76 -307 62
-535 135 -757 244 -220 107 -352 215 -412 339 l-28 56 -3 253 c-2 138 1 252 6
252 4 0 24 -16 43 -36z m4719 -469 c-7 -22 -23 -60 -37 -84 -122 -210 -509
-407 -1050 -535 l-103 -24 0 319 0 319 23 5 c533 118 892 266 1117 459 l55 47
3 -233 c2 -153 -1 -247 -8 -273z m-2063 19 c30 -15 83 -70 83 -87 0 -4 -169
-7 -376 -7 l-376 0 -34 -34 -34 -34 0 -262 0 -262 34 -34 34 -34 376 0 c244 0
376 -4 376 -10 0 -21 -80 -89 -112 -95 -18 -3 -191 -5 -385 -3 -337 3 -353 4
-379 24 -15 11 -37 33 -48 48 -20 26 -21 42 -24 339 -2 172 0 326 3 344 7 40
49 91 90 109 23 10 112 13 383 14 308 0 358 -2 389 -16z m713 -424 l0 -440
-80 0 -80 0 0 440 0 440 80 0 80 0 0 -440z m-320 11 l0 -318 -37 -7 c-21 -3
-53 -6 -70 -6 l-33 0 0 319 0 320 53 4 c28 2 60 4 70 5 16 2 17 -19 17 -317z
m-300 114 l0 -45 -145 0 c-142 0 -147 -1 -170 -25 -16 -15 -25 -36 -25 -55 0
-19 9 -40 25 -55 23 -24 28 -25 170 -25 l145 0 0 -45 0 -45 -335 0 -335 0 0
170 0 170 335 0 335 0 0 -45z m-151 -1053 c218 -75 385 -221 490 -429 59 -118
76 -200 75 -368 0 -141 -2 -156 -32 -245 -91 -272 -301 -472 -578 -552 -113
-32 -315 -32 -428 0 -277 80 -487 280 -578 552 -30 89 -32 104 -32 245 -1 127
2 162 22 228 71 246 260 459 487 549 121 48 183 58 335 55 133 -3 153 -6 239
-35z"/>
<path d="M925 2945 c-50 -49 -15 -135 55 -135 41 0 80 39 80 80 0 41 -39 80
-80 80 -19 0 -40 -9 -55 -25z"/>
<path d="M1405 2825 c-50 -49 -15 -135 55 -135 41 0 80 39 80 80 0 41 -39 80
-80 80 -19 0 -40 -9 -55 -25z"/>
<path d="M4085 2945 c-16 -15 -25 -36 -25 -55 0 -19 9 -40 25 -55 15 -16 36
-25 55 -25 19 0 40 9 55 25 16 15 25 36 25 55 0 19 -9 40 -25 55 -15 16 -36
25 -55 25 -19 0 -40 -9 -55 -25z"/>
<path d="M2484 1568 c-78 -73 -59 -216 34 -255 32 -13 42 -14 76 -2 100 35
123 186 39 259 -48 43 -101 42 -149 -2z"/>
<path d="M2064 1453 c-33 -6 -74 -56 -81 -97 -7 -47 18 -113 57 -151 23 -22
41 -29 84 -33 51 -4 57 -2 86 26 29 30 36 53 31 117 -6 80 -99 152 -177 138z"/>
<path d="M2973 1441 c-93 -43 -127 -172 -64 -240 58 -62 162 -32 209 59 61
118 -31 233 -145 181z"/>
<path d="M2475 1199 c-199 -30 -383 -212 -418 -413 -28 -163 59 -308 211 -352
50 -15 69 -15 169 -4 75 9 144 10 210 5 198 -16 260 1 343 92 77 84 97 175 65
298 -23 87 -62 152 -135 226 -120 122 -275 174 -445 148z m210 -177 c96 -37
167 -111 205 -211 36 -94 17 -171 -50 -206 -37 -19 -52 -20 -197 -10 -76 6
-146 4 -217 -5 -98 -12 -106 -12 -138 7 -54 32 -80 79 -76 138 12 141 135 274
282 305 51 11 138 3 191 -18z"/>
</g>
</svg>
